<?xml version="1.0" encoding="UTF-8"?> <svg xmlns="http://www.w3.org/2000/svg" xmlns:xlink="http://www.w3.org/1999/xlink" viewBox="0 0 500 500"><defs><style>.cls-1,.cls-2{fill:#b1b4c4;}.cls-1,.cls-10,.cls-11,.cls-15,.cls-17,.cls-18,.cls-4,.cls-6,.cls-7,.cls-8,.cls-9{fill-rule:evenodd;}.cls-3{fill:#e4e7f2;}.cls-12,.cls-4,.cls-7{fill:#e9eaf2;}.cls-5{fill:#fff;}.cls-6{fill:#fafbfe;}.cls-7{opacity:0.5;}.cls-8{fill:#2b303f;}.cls-9{fill:#d6d8e5;}.cls-10{fill:#0a688b;}.cls-11{fill:#003c50;}.cls-13{fill:url(#Unbenannter_Verlauf_2);}.cls-14{fill:none;stroke:#cccedd;stroke-width:1.06px;}.cls-15{fill:#00506a;}.cls-16{fill:#dc9884;}.cls-17{fill:#1b3552;}.cls-18{fill:#b1d1e4;}</style><linearGradient id="Unbenannter_Verlauf_2" x1="414.92164" y1="-4263.50712" x2="414.92164" y2="-4310.69033" gradientTransform="matrix(1.50319, 0, 0, -1.12288, -264.15355, -4554.51504)" gradientUnits="userSpaceOnUse"><stop offset="0" stop-color="#e9eaf2" stop-opacity="0.8"></stop><stop offset="1" stop-color="#e9eaf2" stop-opacity="0"></stop></linearGradient></defs><g id="Illustration"><g id="layer1"><g id="Illustrations_App-Development" data-name="Illustrations/App-Development"><g id="Laptop"><path id="Path-2" class="cls-1" d="M470.33048,381.13048,214.6244,233.95c-3.57825-2.03886-6.54283-7.64494-6.54283-12.33334V24.39146c0-4.79049,2.86193-6.93092,6.54283-4.89241L470.33048,166.67942c3.57825,2.03776,6.54285,7.64383,6.54285,12.33225V376.23741C476.87333,381.02816,473.90873,383.27058,470.33048,381.13048Z"></path><polygon id="polygon3092" class="cls-2" points="474.522 381.538 473.295 373.18 471.659 383.168 474.522 381.538"></polygon><path id="path3094" class="cls-2" d="M207.67208,20.72215l2.76039-1.63081,3.98775,2.24236s-4.29457.61155-4.39611.61155C209.92146,21.94525,207.67208,20.72215,207.67208,20.72215Z"></path><path id="path3096" class="cls-3" d="M468.08111,382.55648,212.27349,235.37713c-3.57825-2.03887-6.544-7.64494-6.544-12.33335V25.81841c0-4.79048,2.9657-6.93092,6.544-4.89241l255.705,147.18053c3.57825,2.03776,6.54394,7.64382,6.54394,12.33224V377.56216c0,4.79075-2.86306,7.03317-6.44132,4.99428Z"></path><path id="path3098" class="cls-4" d="M467.569,382.76113,211.864,235.58068c-3.57825-2.03886-6.54283-7.64382-6.54283-12.33335V26.02227c0-4.79049,2.96458-6.93093,6.54283-4.89242L467.569,168.31008c3.57937,2.03887,6.54394,7.64382,6.54394,12.33335V377.86807C474.1129,382.65882,471.1483,384.7989,467.569,382.76113Z"></path><path id="path3100" class="cls-5" d="M470.53468,370.73368,208.59258,219.986l.10266-193.14835c0-1.93659,1.43041-2.752,3.06722-1.83466l255.705,147.18015a6.766,6.766,0,0,1,3.06722,5.40251Z"></path><path id="path3102" class="cls-6" d="M470.432,370.73368,208.59258,219.986l.10266-193.14835c0-1.93659,1.43041-2.752,3.06722-1.83466l255.705,147.18015a6.766,6.766,0,0,1,3.06722,5.40251Z"></path><path id="path3104" class="cls-7" d="M274.74282,497.32516,19.03726,350.14471c-3.57844-2.03888-3.16948-5.7073,1.02241-8.05206L191.4154,243.53039c4.09039-2.34365,10.429-2.64954,14.00729-.61066L461.12877,390.09906c3.57825,2.03888,3.16876,5.70839-1.02315,8.05207L288.75011,496.71337c-4.19193,2.446-10.429,2.75187-14.00729.61176Z"></path><path id="path3106" class="cls-1" d="M280.26361,493.9615,24.55829,346.8834c-3.57844-2.03889-3.16948-5.70839,1.02241-8.05207l171.35662-98.56224c4.08926-2.34364,10.42791-2.64954,14.00616-.61178L466.64956,386.83778c3.57826,2.03888,3.16877,5.70839-1.02314,8.05206l-171.254,98.56228c-4.19193,2.34364-10.53058,2.64952-14.10883.50945Z"></path><polygon id="polygon3108" class="cls-2" points="22.104 338.729 27.626 340.971 22.104 343.52 22.104 338.729"></polygon><polygon id="polygon3110" class="cls-2" points="465.014 387.041 467.672 390.914 469.001 390.405 469.001 385.717 465.014 387.041"></polygon><path id="path3112" class="cls-3" d="M280.26361,489.98612,24.55829,342.80567c-3.57844-2.03777-3.16948-5.70731,1.02241-8.05207l171.35662-98.56114c4.08926-2.34476,10.42791-2.65064,14.00616-.61178L466.64956,382.76113c3.57826,2.03777,3.16877,5.70731-1.02314,8.05207l-171.254,98.56116C290.18051,491.71912,283.84186,492.025,280.26361,489.98612Z"></path><path id="path3114" class="cls-4" d="M280.26361,489.37432,24.55829,342.195c-3.57844-2.03888-3.16948-5.70839,1.02241-8.05206l171.35662-98.56225c4.08926-2.34476,10.42791-2.64954,14.00616-.61177L466.64956,382.14937c3.57826,2.03889,3.16877,5.70731-1.02314,8.05207l-171.254,98.56224c-4.19193,2.34365-10.53058,2.64953-14.10883.61068Z"></path><path id="path3116" class="cls-8" d="M192.13174,268.80888l-11.86057-6.82962c-1.022-.50943-.81785-1.52831.30683-2.14009l11.34954-6.52373a4.12236,4.12236,0,0,1,3.78243-.10123l11.96209,6.82852c.9205.50943.81786,1.52943-.30683,2.14009l-11.34841,6.52371a5.134,5.134,0,0,1-3.88508.10233Z"></path><path id="path3118" class="cls-8" d="M209.00094,278.49159,197.1415,271.662c-.9205-.50943-.81785-1.52831.30683-2.14009l11.34843-6.52373a4.12789,4.12789,0,0,1,3.78356-.10123l11.85944,6.8285c1.022.50943.81786,1.52943-.30683,2.14121l-11.34843,6.52261a4.45987,4.45987,0,0,1-3.78356.10233Z"></path><path id="path3120" class="cls-8" d="M226.07547,288.27662,214.216,281.447c-1.02316-.50944-.81785-1.52832.30683-2.14009l11.34843-6.52374a4.46179,4.46179,0,0,1,3.78244-.20355l11.86056,6.82851c1.022.51055.81786,1.52943-.30683,2.14121L229.859,288.072a4.14562,4.14562,0,0,1-3.78356.20467Z"></path><path id="path3122" class="cls-8" d="M242.74051,297.857l-11.85944-6.82849c-.9205-.51055-.81785-1.52944.30683-2.14121l11.34843-6.52262a4.12461,4.12461,0,0,1,3.78356-.10233l11.85944,6.82962c.9205.50943.81786,1.52831-.30683,2.14009l-11.34843,6.52262A4.1334,4.1334,0,0,1,242.74051,297.857Z"></path><path id="path3124" class="cls-8" d="M259.61084,307.53969l-11.85944-6.82851c-1.02316-.50943-.819-1.52944.30572-2.14009l11.34954-6.52374a4.1257,4.1257,0,0,1,3.78244-.10233l11.86056,6.82962c1.022.50943.81786,1.52831-.30683,2.14009l-11.34953,6.52374a4.14025,4.14025,0,0,1-3.78244.10122Z"></path><path id="path3126" class="cls-8" d="M276.37853,317.32472,264.518,310.49621c-.91939-.51057-.81785-1.52943.30683-2.14119l11.34954-6.52262a4.12227,4.12227,0,0,1,3.78244-.10232l11.86056,6.82963c1.022.50945.81786,1.52831-.30683,2.14011L280.161,317.22245a4.45753,4.45753,0,0,1-3.78244.10234Z"></path><path id="path3128" class="cls-8" d="M293.24775,327.00745l-11.85944-6.82851c-1.022-.50945-.81785-1.52944.30683-2.14011l11.34843-6.52372a4.128,4.128,0,0,1,3.78356-.10234l11.85944,6.82963c1.022.50945.81786,1.52831-.30683,2.14011l-11.34843,6.52371A4.46383,4.46383,0,0,1,293.24775,327.00745Z"></path><path id="path3130" class="cls-8" d="M310.11808,336.69014l-11.86056-6.82851c-1.022-.50945-.81786-1.52944.30683-2.14011l11.34953-6.52372a4.462,4.462,0,0,1,3.78246-.20357l11.86056,6.82851c1.022.50945.81786,1.52944-.30683,2.1412l-11.34953,6.52263A4.12374,4.12374,0,0,1,310.11808,336.69014Z"></path><path id="path3132" class="cls-8" d="M326.98729,346.374l-11.85944-6.82963c-1.022-.50945-.81786-1.52832.30683-2.14011l11.34841-6.52372a4.46816,4.46816,0,0,1,3.78354-.20357l11.85944,6.82851c1.022.51057.81786,1.52944-.30682,2.1412l-11.34842,6.52263a4.12927,4.12927,0,0,1-3.78354.20465Z"></path><path id="path3134" class="cls-8" d="M343.85765,356.05667,331.99709,349.227c-1.022-.50945-.81786-1.52831.30683-2.14011l11.34953-6.52372a4.12576,4.12576,0,0,1,3.78246-.10122l11.86056,6.82851c1.022.50945.81786,1.52944-.30683,2.1412l-11.34953,6.52263A4.45758,4.45758,0,0,1,343.85765,356.05667Z"></path><path id="path3136" class="cls-8" d="M360.728,365.73936l-11.86056-6.82963c-1.022-.50945-.81786-1.52831.30683-2.14011l11.34841-6.52263a4.12463,4.12463,0,0,1,3.78354-.10234l11.85944,6.82851c1.02315.51057.81786,1.52943-.30682,2.14119L364.5104,365.637a4.13129,4.13129,0,0,1-3.78245.10235Z"></path><path id="path3138" class="cls-8" d="M377.59719,375.5244l-11.85944-6.82964c-1.02315-.50945-.819-1.52831.3057-2.1401l11.34954-6.52372a4.12571,4.12571,0,0,1,3.78245-.10123l11.86057,6.82852c1.022.50945.81785,1.52943-.30683,2.14119l-11.34954,6.52263A4.46815,4.46815,0,0,1,377.59719,375.5244Z"></path><path id="path3140" class="cls-8" d="M394.36489,385.20712l-11.86056-6.82851c-1.022-.51057-.81786-1.52944.30682-2.1412l11.34954-6.52263a4.46175,4.46175,0,0,1,3.78245-.20465l11.86057,6.82963c1.022.50945.81786,1.52831-.30683,2.14011l-11.34954,6.52371a4.13034,4.13034,0,0,1-3.78245.20357Z"></path><path id="path3142" class="cls-8" d="M419.41375,399.57822,399.37466,388.0613c-1.022-.50945-.81786-1.52944.30682-2.1412l11.34842-6.52263a4.46023,4.46023,0,0,1,3.78354-.20357l19.93646,11.51692c1.022.50945.81786,1.52943-.30682,2.14011l-11.34842,6.52372A3.92425,3.92425,0,0,1,419.41375,399.57822Z"></path><path id="path3144" class="cls-8" d="M200.82242,292.5568l-11.86057-6.82851c-1.022-.50943-.81785-1.52943.30683-2.14121l11.34954-6.52262a4.12214,4.12214,0,0,1,3.78243-.10232l11.85944,6.82961c.92051.50943.81786,1.52831-.30572,2.14009l-11.34953,6.52262a4.468,4.468,0,0,1-3.78244.10232Z"></path><path id="path3146" class="cls-8" d="M217.69162,302.23951l-11.85944-6.8285c-.9205-.50943-.81785-1.52943.30683-2.14009l11.34843-6.52373a4.12567,4.12567,0,0,1,3.78244-.10233l11.96321,6.82961c.91939.50944.81785,1.52832-.30683,2.14009l-11.34954,6.52374a4.34887,4.34887,0,0,1-3.88508.10122Z"></path><path id="path3148" class="cls-8" d="M234.562,312.02456l-11.86056-6.82851c-1.022-.50945-.81786-1.52944.30682-2.14121l11.34954-6.52262a4.12227,4.12227,0,0,1,3.78244-.10233l11.85944,6.82962c.9205.50945.819,1.52831-.30572,2.14011l-11.34954,6.52263a4.45767,4.45767,0,0,1-3.78244.10234Z"></path><path id="path3150" class="cls-8" d="M251.43118,321.70725l-11.85944-6.82851c-.92051-.50945-.81786-1.52944.30682-2.14011l11.34843-6.52372a4.46429,4.46429,0,0,1,3.78356-.20357L266.87,312.94217c.92051.50944.81786,1.52831-.30682,2.1401L255.21474,321.606a4.4639,4.4639,0,0,1-3.78356.10123Z"></path><path id="path3152" class="cls-8" d="M268.19886,331.39l-11.85944-6.93085c-.9205-.50945-.81786-1.52832.30683-2.14011l11.34843-6.52263a4.46193,4.46193,0,0,1,3.78243-.20466l11.96321,6.82963c1.022.50945.81786,1.52832-.30682,2.14011L272.084,331.08518a4.37725,4.37725,0,0,1-3.88508.30476Z"></path><path id="path3154" class="cls-8" d="M285.06921,341.07378l-11.86057-6.82963c-1.022-.50945-.81785-1.52831.30683-2.14011l11.34843-6.52371a4.12789,4.12789,0,0,1,3.78356-.10123l11.85944,6.82851c1.02317.50945.81786,1.52944-.30682,2.14011l-11.34844,6.52372A4.45764,4.45764,0,0,1,285.06921,341.07378Z"></path><path id="path3156" class="cls-8" d="M301.93843,350.75647,290.079,343.92684c-1.02316-.50945-.81786-1.52831.30683-2.14011l11.34843-6.52263a4.46194,4.46194,0,0,1,3.78243-.20465l11.86057,6.82963c1.022.50945.81786,1.52831-.30683,2.14011L305.722,350.5529a3.85159,3.85159,0,0,1-3.78356.20357Z"></path><path id="path3158" class="cls-8" d="M318.9103,360.54151l-11.85944-6.82963c-1.022-.50945-.81786-1.52832.30683-2.14011l11.34841-6.52372a4.12788,4.12788,0,0,1,3.78354-.10122l11.85944,6.82851c1.022.50945.81786,1.52943-.30682,2.1401l-11.34842,6.52372A4.47821,4.47821,0,0,1,318.9103,360.54151Z"></path><path id="path3160" class="cls-8" d="M335.78063,370.22423l-11.86056-6.82963c-1.022-.50945-.81786-1.52831.30682-2.14011l11.34954-6.52263a4.12249,4.12249,0,0,1,3.78245-.10234l11.86057,6.82851c1.022.51057.81785,1.52943-.30683,2.14119l-11.34954,6.52263a4.46815,4.46815,0,0,1-3.78245.10235Z"></path><path id="path3162" class="cls-8" d="M352.64984,379.90692l-11.85944-6.82851c-1.022-.51057-.81786-1.52943.30682-2.14119l11.34842-6.52264a4.46419,4.46419,0,0,1,3.78354-.20465l11.9621,6.82963c1.022.50945.81786,1.52831-.30683,2.14011L356.536,379.70339a4.06323,4.06323,0,0,1-3.8862.20357Z"></path><path id="path3164" class="cls-8" d="M369.5202,389.692l-11.86056-6.82964c-1.022-.50945-.81786-1.52831.30682-2.1401l11.34954-6.52264a4.12249,4.12249,0,0,1,3.78245-.10234l11.86057,6.82851c1.022.51057.81785,1.52944-.30683,2.1412l-11.34954,6.52263a4.45756,4.45756,0,0,1-3.78245.10234Z"></path><path id="path3166" class="cls-8" d="M386.39053,399.37468,374.53,392.54617c-1.022-.51057-.81786-1.52944.30682-2.1412l11.34842-6.52263a4.46419,4.46419,0,0,1,3.78354-.20465l11.9621,6.82963c1.022.50945.81786,1.52831-.30683,2.14011l-11.34841,6.52371a4.06115,4.06115,0,0,1-3.88508.20357Z"></path><path id="path3168" class="cls-8" d="M183.95207,282.87411l-20.03911-11.518c-.9205-.50943-.81786-1.52831.30683-2.14009l11.34843-6.52261a4.46424,4.46424,0,0,1,3.78356-.20468l20.03909,11.518c.9205.50944.81786,1.52832-.30683,2.14009l-11.34843,6.52374a4.48777,4.48777,0,0,1-3.78356.20355Z"></path><path id="path3170" class="cls-8" d="M418.59589,400.19l-11.85944-6.82851a3.71986,3.71986,0,0,0-3.57937,0L391.195,400.29232c-1.022.50945-1.022,1.42709,0,2.03776l.92052.51057c.92052.50945.92052,1.32478,0,1.83419l-12.78,7.339c-1.02315.61068-1.02315,1.52832,0,2.03776l7.566,4.38253a3.71769,3.71769,0,0,0,3.57826,0l11.85944-6.82851,2.45469-1.42709,1.73725-1.01887,1.73838-1.02,10.22373-5.91084c1.02314-.61176,1.02314-1.52943.10266-2.03888Z"></path><path id="path3172" class="cls-8" d="M126.90178,306.41848l-11.86-6.82851c-1.02238-.50943-.818-1.52943.30672-2.14009l11.34876-6.52374a4.12672,4.12672,0,0,1,3.783-.10232l11.85944,6.82961c.9205.50943.81786,1.52831-.30572,2.14009l-11.34954,6.52374A4.4724,4.4724,0,0,1,126.90178,306.41848Z"></path><path id="path3174" class="cls-8" d="M143.66969,316.10117l-11.86056-6.82851c-1.022-.50945-.81786-1.52944.30683-2.14011l11.34843-6.52373a4.12452,4.12452,0,0,1,3.78355-.10123l11.85944,6.8285c.9205.50945.81786,1.52831-.30684,2.1401l-11.34842,6.52372a4.45367,4.45367,0,0,1-3.78243.10123Z"></path><path id="path3176" class="cls-8" d="M160.43737,325.785l-11.86056-6.82963c-1.022-.50945-.81785-1.52831.30684-2.1401l11.34843-6.52372a4.12789,4.12789,0,0,1,3.78356-.10123l11.85944,6.82851c.9205.50945.81786,1.52944-.30683,2.14011l-11.34844,6.52372A4.45767,4.45767,0,0,1,160.43737,325.785Z"></path><path id="path3178" class="cls-8" d="M303.57414,408.13973l-11.85944-6.82851c-1.022-.50945-.81785-1.52832.30683-2.14011l11.34841-6.52372a4.46426,4.46426,0,0,1,3.78355-.20357l11.85944,6.82852c1.022.51056.81785,1.52943-.30683,2.14119l-11.34841,6.62494a4.12464,4.12464,0,0,1-3.78355.10123Z"></path><path id="path3180" class="cls-8" d="M320.44447,417.82354l-11.86056-6.82963c-1.022-.50945-.81786-1.52832.30683-2.14011l11.34953-6.52372a4.12565,4.12565,0,0,1,3.78246-.10122l11.86056,6.82851c1.022.50945.81786,1.52943-.30683,2.14011l-11.34953,6.52372A4.46813,4.46813,0,0,1,320.44447,417.82354Z"></path><path id="path3182" class="cls-8" d="M337.21214,427.50623l-11.86056-6.82963c-1.022-.50945-.81786-1.52832.30683-2.14011l11.34953-6.52263a4.1224,4.1224,0,0,1,3.78246-.10235L352.64984,418.74c1.02314.51056.819,1.52943-.30571,2.14119l-11.34953,6.52263a4.45774,4.45774,0,0,1-3.78246.10235Z"></path><path id="path3184" class="cls-8" d="M353.97984,437.189l-11.86056-6.82851c-1.022-.51057-.81786-1.52943.30683-2.14119l11.34841-6.52263a4.12463,4.12463,0,0,1,3.78354-.10235l11.85944,6.82963c1.02315.50945.81786,1.52832-.30682,2.14011l-11.34842,6.52263a4.444,4.444,0,0,1-3.78245.10235Z"></path><path id="path3186" class="cls-8" d="M181.60116,337.91369l-16.25665-9.37681c-.9205-.50945-.81786-1.52943.30682-2.14119l11.34844-6.52263a4.12465,4.12465,0,0,1,3.78355-.10235l16.25556,9.37793c1.02316.50945.81785,1.52831-.30683,2.14011l-11.34843,6.52263a4.12247,4.12247,0,0,1-3.78244.10235Z"></path><path id="path3188" class="cls-8" d="M286.80757,398.457l-16.25668-9.37681c-1.02316-.50945-.81785-1.52832.30683-2.14011l11.34843-6.52372a4.12246,4.12246,0,0,1,3.78244-.10122l16.25667,9.37681c1.02315.50945.81786,1.52831-.30683,2.1401L290.59,398.35578A4.12567,4.12567,0,0,1,286.80757,398.457Z"></path><path id="path3190" class="cls-8" d="M265.64265,386.32833,186.50828,340.7679c-.9205-.50945-.81785-1.52943.30683-2.14119l11.34843-6.52263a4.12467,4.12467,0,0,1,3.78356-.10235l79.13438,45.56043c1.022.51057.81786,1.52943-.30682,2.14119L269.42623,386.226a4.46009,4.46009,0,0,1-3.78356.10235Z"></path><path id="path3192" class="cls-8" d="M189.0645,304.58429l-11.86057-6.82962c-.91939-.50943-.81785-1.52831.30683-2.14009L188.8603,289.092a4.12222,4.12222,0,0,1,3.78243-.10233l11.96209,6.82851c1.02316.51055.81786,1.52943-.30683,2.14121L192.94956,304.482a4.34561,4.34561,0,0,1-3.88508.10234Z"></path><path id="path3194" class="cls-8" d="M205.93372,314.267l-11.85944-6.82851c-.9205-.51057-.81786-1.52944.30683-2.1412l11.34843-6.52261a4.46013,4.46013,0,0,1,3.78356-.20356l11.85944,6.82852c1.022.50945.81785,1.52831-.30683,2.1401l-11.34843,6.52372a4.14882,4.14882,0,0,1-3.78356.20357Z"></path><path id="path3196" class="cls-8" d="M222.70141,323.94967,210.842,317.12116c-1.022-.50945-.81785-1.52944.30683-2.1412l11.34843-6.52263a4.12467,4.12467,0,0,1,3.78356-.10235l11.85944,6.82964c1.022.50945.81786,1.52831-.30682,2.1401L226.485,323.84844A4.12787,4.12787,0,0,1,222.70141,323.94967Z"></path><path id="path3198" class="cls-8" d="M239.57174,333.63239l-11.86057-6.82851c-1.022-.50945-.81786-1.52943.30683-2.14011L239.36754,318.14a4.12233,4.12233,0,0,1,3.78243-.10122l11.86057,6.82851c1.022.50945.81785,1.52831-.30683,2.14011l-11.34954,6.52372A4.12245,4.12245,0,0,1,239.57174,333.63239Z"></path><path id="path3200" class="cls-8" d="M256.441,343.3162l-11.85944-6.82963c-1.022-.50945-.81786-1.52831.30682-2.14011l11.34844-6.52372a4.1279,4.1279,0,0,1,3.78355-.10122L271.87978,334.55c1.022.50945.81785,1.52943-.30683,2.14011l-11.34843,6.52372A4.13686,4.13686,0,0,1,256.441,343.3162Z"></path><path id="path3202" class="cls-8" d="M273.20864,353.10012,261.3492,346.2716c-1.02316-.50945-.81785-1.52943.30683-2.1401l11.34843-6.52369a4.462,4.462,0,0,1,3.78244-.20357l11.86056,6.82851c1.022.50945.81786,1.52944-.30683,2.1412l-11.34843,6.52263a4.126,4.126,0,0,1-3.78356.20357Z"></path><path id="path3204" class="cls-8" d="M290.079,362.784l-11.86056-6.82963c-1.022-.50945-.81786-1.52832.30683-2.14011l11.34953-6.52372a4.12225,4.12225,0,0,1,3.78244-.10122l11.85944,6.82851c1.02315.50945.81786,1.52943-.3057,2.14011l-11.34954,6.52371A4.86377,4.86377,0,0,1,290.079,362.784Z"></path><path id="path3206" class="cls-8" d="M306.9482,372.46665,295.08876,365.637c-1.02317-.50945-.81786-1.52832.30682-2.14011l11.34842-6.52372a4.12574,4.12574,0,0,1,3.78245-.10122l11.86056,6.82851c1.022.50945.81786,1.52943-.30682,2.14119l-11.34842,6.52263a4.4707,4.4707,0,0,1-3.78354.10235Z"></path><path id="path3208" class="cls-8" d="M323.7159,382.14937l-11.85944-6.82963c-1.02315-.50945-.81786-1.52831.30683-2.14011L323.5117,366.657a4.12249,4.12249,0,0,1,3.78245-.10234l11.86057,6.82851c1.022.51057.81785,1.52943-.30683,2.14119L327.49948,382.047a4.46006,4.46006,0,0,1-3.78355.10235Z"></path><path id="path3210" class="cls-8" d="M340.58623,391.83206l-11.86057-6.82851c-1.022-.51057-.81785-1.52943.30683-2.14119l11.34842-6.52263a4.46019,4.46019,0,0,1,3.78354-.20357l11.85944,6.82851c1.02314.50945.81786,1.52831-.30683,2.14011l-11.34841,6.52371a4.13055,4.13055,0,0,1-3.78246.20357Z"></path><path id="path3212" class="cls-8" d="M357.45544,401.51475,345.596,394.68624c-1.02314-.50945-.81785-1.52943.30683-2.14011l11.34842-6.52371a4.12584,4.12584,0,0,1,3.78245-.10235l11.86056,6.82963c1.022.50945.81786,1.52832-.30682,2.14011L361.239,401.41353a4.4744,4.4744,0,0,1-3.78354.10122Z"></path><path id="path3214" class="cls-8" d="M374.22314,411.19748,362.3637,404.369c-1.02315-.50944-.81786-1.52831.30682-2.1401l11.34842-6.52372a4.12248,4.12248,0,0,1,3.78245-.10123l11.86057,6.82852c1.022.50945.81785,1.52943-.30683,2.1401l-11.34842,6.625a4.46047,4.46047,0,0,1-3.78354,0Z"></path><path id="path3216" class="cls-8" d="M172.19417,294.90156,147.55477,280.734c-1.02315-.51055-.81785-1.52943.30684-2.14121L159.21,272.07018a4.12235,4.12235,0,0,1,3.78244-.10233l24.6405,14.16756c1.022.50943.81786,1.52943-.30682,2.14121l-11.34843,6.52262A4.45991,4.45991,0,0,1,172.19417,294.90156Z"></path><path id="path3218" class="cls-8" d="M164.32245,309.17035l-11.86056-6.82851c-.9205-.50944-.81785-1.52944.30684-2.14009l11.34843-6.52374a4.46407,4.46407,0,0,1,3.78356-.20355l11.85944,6.82849c.9205.50944.81786,1.52944-.30683,2.14121l-11.34843,6.52262a4.12387,4.12387,0,0,1-3.78243.20357Z"></path><path id="path3220" class="cls-8" d="M181.19167,318.85416l-11.85944-6.82963c-.9205-.50945-.81785-1.52832.30683-2.14011l11.34843-6.52374a4.12238,4.12238,0,0,1,3.78244-.10122l11.86056,6.82849c1.022.50945.81786,1.52944-.30683,2.14011l-11.34843,6.52372a4.128,4.128,0,0,1-3.78356.10234Z"></path><path id="path3222" class="cls-8" d="M198.062,328.53688l-11.96208-6.82963c-1.02317-.50945-.819-1.52831.30572-2.14011l11.34954-6.52372a4.46589,4.46589,0,0,1,3.78243-.20357l11.86057,6.82964c1.022.50945.81785,1.52831-.30683,2.1401l-11.34954,6.52264a3.93436,3.93436,0,0,1-3.67979.20465Z"></path><path id="path3224" class="cls-8" d="M214.82969,338.21957l-11.86057-6.82963c-1.022-.50945-.81785-1.52831.30683-2.14011l11.34843-6.52263a4.12467,4.12467,0,0,1,3.78356-.10234l11.85944,6.82851c.9205.51057.81786,1.52943-.30682,2.14119l-11.34844,6.52263a4.12245,4.12245,0,0,1-3.78243.10235Z"></path><path id="path3226" class="cls-8" d="M231.69891,347.9023l-11.85944-6.82852c-.9205-.51057-.81786-1.52943.30683-2.14119L231.49473,332.41a4.12245,4.12245,0,0,1,3.78243-.10235l11.86057,6.82964c.91939.50944.81786,1.52831-.30683,2.1401L235.48247,347.8a4.12467,4.12467,0,0,1-3.78356.10235Z"></path><path id="path3228" class="cls-8" d="M248.56926,357.585l-11.86057-6.82852c-.9205-.50945-.81785-1.52943.30683-2.1401l11.34843-6.52372a4.128,4.128,0,0,1,3.78356-.10235l11.85944,6.82964c.9205.50944.81786,1.52831-.30682,2.1401l-11.34844,6.52372A4.13443,4.13443,0,0,1,248.56926,357.585Z"></path><path id="path3230" class="cls-8" d="M265.33582,367.37l-11.85944-6.82851c-.9205-.51057-.81786-1.52944.30683-2.1412l11.34843-6.52263a4.12467,4.12467,0,0,1,3.78356-.10234l11.85944,6.82963c1.022.50945.81785,1.52831-.30683,2.14011l-11.34843,6.52263a4.86142,4.86142,0,0,1-3.78356.10234Z"></path><path id="path3232" class="cls-8" d="M282.20615,377.05274l-11.85944-6.82851c-.9205-.50945-.819-1.52943.30572-2.14011l11.34954-6.52371a4.462,4.462,0,0,1,3.78243-.20357l11.86057,6.82851c1.022.50945.81785,1.52943-.30683,2.14011l-11.34955,6.52371A4.46174,4.46174,0,0,1,282.20615,377.05274Z"></path><path id="path3234" class="cls-8" d="M299.0765,386.73543l-11.86057-6.82851c-1.022-.50945-.81785-1.52831.30683-2.14011l11.34843-6.52371a4.12466,4.12466,0,0,1,3.78356-.10123l11.85944,6.82851c1.02315.50945.81786,1.52832-.30683,2.14011L302.859,386.63421a4.4715,4.4715,0,0,1-3.78244.10122Z"></path><path id="path3236" class="cls-8" d="M315.84308,396.41924l-11.85945-6.82963c-1.022-.50945-.81785-1.52831.30683-2.14011l11.34842-6.52371a4.46808,4.46808,0,0,1,3.78354-.20357l11.85944,6.82963c1.022.50945.81786,1.52831-.30683,2.14011l-11.34841,6.52263A4.12927,4.12927,0,0,1,315.84308,396.41924Z"></path><path id="path3238" class="cls-8" d="M332.71341,406.102l-11.86057-6.82963c-1.022-.50945-.81786-1.52832.30683-2.14011l11.34954-6.52263a4.12249,4.12249,0,0,1,3.78245-.10235l11.86056,6.82851c1.022.50945.81786,1.52944-.30682,2.1412l-11.34954,6.52263a4.45756,4.45756,0,0,1-3.78245.10234Z"></path><path id="path3240" class="cls-8" d="M370.338,427.81211l-32.71751-18.856c-1.022-.51057-.81786-1.52944.30683-2.1412l11.34953-6.52263a4.12243,4.12243,0,0,1,3.78246-.10235l32.71751,18.856c1.022.50945.81786,1.52943-.30683,2.14119l-11.34953,6.52264A4.86349,4.86349,0,0,1,370.338,427.81211Z"></path><path id="path3242" class="cls-8" d="M147.55477,299.48764l-16.25666-9.37683c-1.022-.50943-.81786-1.52943.30684-2.14009l11.34842-6.52373a4.464,4.464,0,0,1,3.78355-.20355l16.25556,9.37682c.9205.50944.81785,1.52944-.30683,2.14009l-11.34842,6.52374a3.84955,3.84955,0,0,1-3.78244.20355Z"></path><path id="path3244" class="cls-8" d="M436.28408,389.79318,197.24416,252.19423c-1.02316-.50943-.81785-1.52831.30573-2.14009l5.7261-3.26132a4.462,4.462,0,0,1,3.78243-.20467L446.09835,384.18822c1.02315.50945.819,1.52832-.3057,2.14011l-5.62346,3.26132a4.05817,4.05817,0,0,1-3.88508.20356Z"></path><path id="path3246" class="cls-1" d="M288.238,405.49017a3.82762,3.82762,0,0,1-1.63571,1.733l-65.74075,37.81427a8.26333,8.26333,0,0,1-7.25915.30588L101.13692,380.61994a2.38919,2.38919,0,0,1-1.12457-1.12121c-.409-1.01886.2044-2.14011,1.63582-3.05775l65.74154-37.91549a8.2596,8.2596,0,0,1,7.25915-.30588l112.46444,64.7223a2.19569,2.19569,0,0,1,1.12469,2.5483Z"></path><path id="path3248" class="cls-9" d="M288.238,405.49017a3.82762,3.82762,0,0,1-1.63571,1.733l-65.74075,37.81427a8.26333,8.26333,0,0,1-7.25915.30588L101.13692,380.61994a2.38919,2.38919,0,0,1-1.12457-1.12121,3.82283,3.82283,0,0,1,1.63582-1.73188l65.74154-37.81428a8.25607,8.25607,0,0,1,7.25915-.30588L287.1133,404.369a2.94927,2.94927,0,0,1,1.12469,1.12121Z"></path><path id="path3250" class="cls-8" d="M454.48217,379.39747,215.44226,241.79852a4.39793,4.39793,0,0,1-1.73726-3.36364v-2.8542c0-1.32476.81786-1.93654,1.73726-1.32476l239.03991,137.599a4.1062,4.1062,0,0,1,1.73837,3.36363v2.85421c0,1.32478-.71519,1.83419-1.73837,1.32478Z"></path><path id="path3252" class="cls-4" d="M251.53384,228.24162l-23.61736-13.55578c-2.96571-1.733-5.31661-6.31907-5.31661-10.19214V179.21632c0-3.97542,2.45357-5.7084,5.31661-4.07774l23.61734,13.65812c2.96458,1.733,5.31661,6.32019,5.31661,10.19326v25.27737c0,3.87308-2.352,5.60607-5.31661,3.97431Z"></path><path id="path3254" class="cls-4" d="M251.43118,170.349,227.81381,156.792c-2.96457-1.73187-5.3166-8.66271-5.3166-12.02635V115.30881c0-3.97509,2.45356-5.70774,5.3166-4.077l23.61735,13.556c2.9657,1.73276,5.31661,6.31973,5.31661,10.19281V164.437c0,3.46487-2.35091,7.64382-5.31661,5.912Z"></path><path id="Shape-9" class="cls-10" d="M239.77592,150.67654c-4.8056-2.75187-8.69068-9.47915-8.69068-15.0841,0-5.60607,3.88508-7.74683,8.69068-4.9943,4.8056,2.75187,8.69068,9.478,8.69068,15.08411S244.58152,153.42841,239.77592,150.67654Zm0-17.42887c-3.57825-2.03887-6.4413-.40821-6.4413,3.77075a14.14924,14.14924,0,0,0,6.4413,11.21214c3.57825,2.03888,6.44129.40822,6.44129-3.66953A13.9201,13.9201,0,0,0,239.77592,133.24767Z"></path><polygon id="polygon3257" class="cls-10" points="240.492 140.484 243.661 145.479 242.229 146.6 238.243 140.382 238.243 135.082 240.492 136.408 240.492 140.484"></polygon><path id="path3259" class="cls-4" d="M251.43118,108.07209l-23.61735-13.556c-2.96458-1.73276-5.31661-9.37715-5.31661-12.84257V54.56137c0-3.36352,2.45357-4.79052,5.31661-3.05775l23.61736,13.556a11.73636,11.73636,0,0,1,5.31661,9.27526V101.447c0,3.36354-2.3509,8.25594-5.31661,6.62507Z"></path><path id="path3261" class="cls-11" d="M239.67327,75.456c-1.4304-.81533-2.55509-.20377-2.55509,1.52888a5.36853,5.36853,0,0,0,2.55509,4.38286c1.43153.81544,2.55622.20377,2.55622-1.427A5.9888,5.9888,0,0,0,239.67327,75.456Zm6.85079,1.01933-2.04519-1.2231a2.049,2.049,0,0,1-.71521-.91733l-.511-2.14043a1.29757,1.29757,0,0,0-.71632-.91733l-5.82764-3.36352a.43922.43922,0,0,0-.71521.20377l-.511,1.52888a.45606.45606,0,0,1-.61367.20389.1003.1003,0,0,1-.10265-.10189l-2.04518-1.2231c-.9194-.50966-1.73725-.102-1.73725,1.01921v8.86749a3.75735,3.75735,0,0,0,1.73725,2.95587l13.70046,7.95016c.9205.50966,1.73836.10189,1.73836-1.01922v-8.8676a3.54747,3.54747,0,0,0-1.63572-2.95575Zm-6.85079,6.931a9.46242,9.46242,0,0,1-4.29346-7.44061c0-2.752,1.94254-3.8732,4.29346-2.44621A9.46014,9.46014,0,0,1,243.96784,80.96C243.8652,83.61005,242.0253,84.73126,239.67327,83.40627Zm6.23711-3.8732a1.35106,1.35106,0,0,1-.61367-1.01932c0-.40767.30683-.50955.61367-.30578a1.35107,1.35107,0,0,1,.61368,1.01933A.37517.37517,0,0,1,245.91038,79.53307Z"></path><path id="path3263" class="cls-10" d="M247.03509,203.47369c0,4.58719-7.25915,10.60037-7.25915,10.60037s-7.25915-14.26879-7.25915-18.856c0-4.58607,3.27142-6.42139,7.25915-4.179A15.69341,15.69341,0,0,1,247.03509,203.47369Z"></path><ellipse id="Oval-8" class="cls-12" cx="239.88863" cy="199.06003" rx="3.88206" ry="6.63015" transform="matrix(0.86465, -0.50238, 0.50238, 0.86465, -67.53418, 147.45898)"></ellipse><path id="path3266" class="cls-4" d="M418.28906,265.34291,275.56067,183.19062c-2.45356-1.426-4.3961-5.09551-4.3961-8.2556V79.2273c0-3.15975,1.94254-4.68863,4.3961-3.26164l142.72839,82.15227c2.45357,1.426,4.29458,5.09552,4.29458,8.25561v95.60572C422.68517,265.24058,420.74263,266.77,418.28906,265.34291Z"></path><path id="path3268" class="cls-5" d="M401.82822,195.82987,291.20367,132.12646c-2.65885-1.52832-4.90824-5.70773-4.90824-9.27515v-7.23672c0-3.5673,2.14785-5.19818,4.90824-3.6693l110.62455,63.80508c2.65886,1.52943,4.8056,5.70841,4.8056,9.2756v7.23672c0,3.46487-2.14674,5.09551-4.8056,3.5672Z"></path><path id="path3270" class="cls-9" d="M341.60825,193.58744,291.101,164.53821c-2.65775-1.52831-4.90712-5.70728-4.90712-9.27448v-7.13439c0-3.56831,2.14673-5.199,4.90712-3.66953l50.50724,29.04811c2.65886,1.52943,4.8056,5.7084,4.8056,9.2756v7.13439C346.51539,193.48511,344.36865,195.11687,341.60825,193.58744Z"></path><path id="path3272" class="cls-13" d="M447.73515,286.339s-53.77978,11.82392-97.33356-36.38717c-43.55493-48.21-79.03284-41.99324-79.03284-41.99324v30.0681L447.63253,339.44313V286.339Z"></path><path id="path3274" class="cls-14" d="M447.73515,286.339s-53.77978,11.82392-97.33356-36.38717c-43.55493-48.21-79.03284-41.99324-79.03284-41.99324"></path></g><path id="path3436" class="cls-1" d="M479.94054,306.21493,394.56908,257.0873c-5.31663-3.05775-9.7127-11.31447-9.7127-18.44886V104.709c0-7.13517,4.29457-10.3967,9.7127-7.33895l85.37149,49.12753c5.31663,3.05775,9.7127,11.31447,9.7127,18.44886V298.9782c0,7.13439-4.39611,10.39679-9.7127,7.23673Z"></path><polygon id="polygon3438" class="cls-1" points="486.279 306.827 484.337 302.954 483.315 308.254 486.279 306.827"></polygon><path id="path3440" class="cls-1" d="M386.39052,97.77772a21.46874,21.46874,0,0,1,2.65773-1.325l2.14674,4.28086Z"></path><path id="path3442" class="cls-8" d="M477.69117,307.33614l-85.3715-49.12762c-5.31662-3.05774-9.7127-11.31447-9.7127-18.44886V105.83021c0-7.13517,4.29457-10.39681,9.7127-7.33906l85.3715,49.12764c5.31662,3.05775,9.7127,11.31447,9.7127,18.44886V299.9971C487.40387,307.23383,483.11042,310.49624,477.69117,307.33614Z"></path><polygon id="polygon3444" class="cls-15" points="392.32 111.843 407.861 120.813 407.861 126.419 392.32 117.449 392.32 111.843"></polygon><polygon id="polygon3446" class="cls-11" points="410.723 122.546 476.772 160.462 476.772 166.068 410.723 128.05 410.723 122.546"></polygon><polygon id="polygon3448" class="cls-15" points="392.32 129.783 407.861 138.751 407.861 144.255 392.32 135.388 392.32 129.783"></polygon><polygon id="polygon3450" class="cls-11" points="410.723 140.382 454.381 165.558 454.381 171.062 410.723 145.988 410.723 140.382"></polygon><polygon id="polygon3452" class="cls-15" points="392.32 138.751 407.861 147.619 407.861 153.225 392.32 144.255 392.32 138.751"></polygon><polygon id="polygon3454" class="cls-10" points="410.723 149.352 465.115 180.643 465.115 186.147 410.723 154.856 410.723 149.352"></polygon><polygon id="polygon3456" class="cls-15" points="392.32 147.619 407.861 156.588 407.861 162.195 392.32 153.225 392.32 147.619"></polygon><polygon id="polygon3458" class="cls-15" points="410.723 158.219 448.553 180.032 448.553 185.638 410.723 163.825 410.723 158.219"></polygon><polygon id="polygon3460" class="cls-15" points="392.32 120.813 407.861 129.783 407.861 135.388 392.32 126.419 392.32 120.813"></polygon><polygon id="polygon3462" class="cls-15" points="410.723 131.413 443.747 150.473 443.747 155.977 410.723 137.018 410.723 131.413"></polygon><polygon id="polygon3464" class="cls-15" points="392.32 156.588 407.861 165.558 407.861 171.062 392.32 162.195 392.32 156.588"></polygon><polygon id="polygon3466" class="cls-11" points="410.723 167.189 430.15 178.401 430.15 183.905 410.723 172.795 410.723 167.189"></polygon><polygon id="polygon3468" class="cls-15" points="392.32 174.426 407.861 183.395 407.861 189.001 392.32 180.032 392.32 174.426"></polygon><polygon id="polygon3470" class="cls-11" points="410.723 185.026 471.864 220.292 471.864 225.796 410.723 190.632 410.723 185.026"></polygon><polygon id="polygon3472" class="cls-15" points="392.32 183.395 407.861 192.364 407.861 197.869 392.32 189.001 392.32 183.395"></polygon><polygon id="polygon3474" class="cls-10" points="410.723 193.996 429.229 204.595 429.229 210.201 410.723 199.601 410.723 193.996"></polygon><polygon id="polygon3476" class="cls-15" points="392.32 192.364 407.861 201.232 407.861 206.837 392.32 197.869 392.32 192.364"></polygon><polygon id="polygon3478" class="cls-15" points="410.723 202.964 465.115 234.256 465.115 239.76 410.723 208.469 410.723 202.964"></polygon><polygon id="polygon3480" class="cls-15" points="392.32 165.558 407.861 174.426 407.861 180.032 392.32 171.062 392.32 165.558"></polygon><polygon id="polygon3482" class="cls-10" points="410.723 176.159 462.151 205.716 462.151 211.322 410.723 181.662 410.723 176.159"></polygon><polygon id="polygon3484" class="cls-15" points="392.32 201.232 407.861 210.201 407.861 215.807 392.32 206.837 392.32 201.232"></polygon><polygon id="polygon3486" class="cls-11" points="410.723 211.832 417.574 215.807 417.574 221.413 410.723 217.438 410.723 211.832"></polygon><polygon id="polygon3488" class="cls-15" points="392.32 219.171 407.861 228.038 407.861 233.644 392.32 224.674 392.32 219.171"></polygon><polygon id="polygon3490" class="cls-11" points="410.723 229.771 423.401 237.008 423.401 242.614 410.723 235.377 410.723 229.771"></polygon><polygon id="polygon3492" class="cls-15" points="392.32 228.038 407.861 237.008 407.861 242.614 392.32 233.644 392.32 228.038"></polygon><polygon id="polygon3494" class="cls-10" points="410.723 238.638 443.747 257.699 443.747 263.304 410.723 244.244 410.723 238.638"></polygon><polygon id="polygon3496" class="cls-15" points="392.32 237.008 407.861 245.977 407.861 251.481 392.32 242.614 392.32 237.008"></polygon><polygon id="polygon3498" class="cls-11" points="410.723 247.608 463.173 277.777 463.173 283.384 410.723 253.214 410.723 247.608"></polygon><polygon id="polygon3500" class="cls-15" points="392.32 210.201 407.861 219.171 407.861 224.674 392.32 215.807 392.32 210.201"></polygon><polygon id="polygon3502" class="cls-10" points="410.723 220.801 476.772 258.819 476.772 264.425 410.723 226.407 410.723 220.801"></polygon><path id="path3504" class="cls-1" d="M47.15363,205.10546l-9.304-4.79075L18.32153,211.52685c-4.39633,2.5472-7.9748.50944-7.9748-4.58718V185.739a17.729,17.729,0,0,1,7.9748-13.86168l116.35064-66.96473c4.3961-2.54831,8.077-.50944,8.077,4.58608v21.30306a17.72918,17.72918,0,0,1-7.97436,13.86168L56.55985,189.612"></path><polygon id="polygon3506" class="cls-1" points="140.5 109.601 137.842 105.422 139.785 104.097 144.181 105.83 140.5 109.601"></polygon><polygon id="polygon3508" class="cls-1" points="51.857 203.067 47.767 202.251 47.154 205.105 51.857 207.042 51.857 203.067"></polygon><path id="path3510" class="cls-1" d="M18.01481,214.37994c.20452.40823-5.00978-1.73188-5.2143-2.03776s6.339-4.07775,6.339-4.07775Z"></path><path id="path3512" class="cls-4" d="M61.05838,191.44735l78.21407-45.051a18.116,18.116,0,0,0,8.077-13.86168V111.23162c0-5.09552-3.57825-7.1344-7.97436-4.58608L22.92249,173.7126a17.72876,17.72876,0,0,0-7.97491,13.86168v21.302c0,5.09663,3.57847,7.13439,7.97491,4.58718l19.528-11.21214,9.40622,4.79075Z"></path><polygon id="polygon3514" class="cls-15" points="25.274 182.069 136.922 117.857 136.922 125.196 25.274 189.408 25.274 182.069"></polygon><polygon id="polygon3516" class="cls-15" points="25.274 195.015 98.376 152.919 98.376 160.36 25.274 202.354 25.274 195.015"></polygon><g id="woman_laptop" data-name="woman laptop"><path class="cls-8" d="M290.48666,24.34882c-.57174-2.72843-2.15668-4.61719-2.837-7.96075s-.5572-8.65549-1.36056-10.73247a6.32482,6.32482,0,0,0-5.13875-4.17473l.00051-.001s-4.87781-1.404-7.84491,1.223a7.23693,7.23693,0,0,0-2.07707,7.237c.34771,1.36455,1.011,3.1606,2.01362,3.63879-.221,2.49223-1.35035,4.28-2.73728,6.37-1.57039,2.36644-1.51255,6.79557,0,8.87987s6.564,4.37835,13.09177,3.56777S291.05833,27.07708,290.48666,24.34882Z"></path><path class="cls-16" d="M286.0503,9.46229A6.94025,6.94025,0,0,0,279.537,2.13112c-3.59677-.21706-6.12251,2.42445-6.66526,5.91268-.28953,1.72248-.78158,5.18171,1.09272,8.30089.90466,1.498,1.73693,2.38821,2.69951,2.38821.07927-.001.172-.00782.272-.01786l-.04049.66922a11.905,11.905,0,0,0-1.53424.04338c-.74543.68751-2.6922,2.66319-2.33751,5.2034.39075,2.75735,5.94151,4.83434,7.72905,4.02375s5.31193-6.31789,4.74018-6.79556-2.598-.86111-2.69934-1.25918.21723-5.83306.21723-5.83306l-.00816.0028.00085-.0028A6.86064,6.86064,0,0,0,286.0503,9.46229Z"></path><path id="_Контур_4-5" data-name=" Контур 4-5" class="cls-16" d="M267.03873,43.744a28.53474,28.53474,0,0,1-5.41331,5.63755A27.46955,27.46955,0,0,0,259.78,51.50924a8.24278,8.24278,0,0,1-3.6185,2.41718c-1.2303.31844-1.74413.23158-1.954,0s-.10855-.58618.427-.79608a6.81791,6.81791,0,0,0,2.381-1.28091s-1.14345.52825-1.85991.77433a6.98426,6.98426,0,0,1-2.01189.398c-.673,0-1.38227-.78159-.84673-1.01316s1.02765-.25332,2.08426-.63686a6.93982,6.93982,0,0,0,1.556-.80334,13.66777,13.66777,0,0,1-2.24348.456,3.51739,3.51739,0,0,1-1.86714-.2099c-.31843-.13747-.5862-.72373.123-.89737a10.85776,10.85776,0,0,0,2.69217-.62962c.83226-.37637,1.34609-.76716,1.16516-.84677s-.65133.17372-1.49082.11579-1.60662-.59344-1.59214-1.04209.17368-.19539.99146-.26775a17.85782,17.85782,0,0,1,2.627-.44147,8.47693,8.47693,0,0,0,2.58364-.30394c.89012-.26783,2.89476-2.64876,4.39282-4.83437a31.84131,31.84131,0,0,0,3.90075-7.84492c.91187-3.01055,2.00464-8.63376,2.7718-10.58772s2.12043-2.85141,3.39416-2.89483c1.49806-.05061,2.17111,1.91786,1.74406,3.61856C274.42768,26.92514,271.13487,38.41031,267.03873,43.744Z"></path><path id="_Контур_5-3" data-name=" Контур 5-3" class="cls-6" d="M283.75624,21.12829c1.527.23165,3.27113,1.04941,3.50987,1.88168a18.04924,18.04924,0,0,1-.43414,9.068c-1.31717,3.49545-2.81523,9.79888-3.57514,11.30419a17.8223,17.8223,0,0,1-11.3693-2.22179s-.31843-6.07185-.34019-8.07649c-4.9139-4.29154-.72365-9.57456,3.44485-13.678a9.44818,9.44818,0,0,1,1.49806,0s-3.7126,4.3929-1.12895,6.88961C280.89032,24.60206,281.99034,22.11977,283.75624,21.12829Z"></path><path id="path10987" class="cls-8" d="M280.6515,2.18907c2.51847.49936,4.59554,1.20858,5.283,3.68364.4704,1.70793,1.08559,4.96462.4994,6.33239l-.36186.99149L283.01083,14.767s-1.44746-1.18688-.97706-4.66791a2.53946,2.53946,0,0,0-.43422-1.31709,3.83521,3.83521,0,0,1-.41972-1.05663,3.9297,3.9297,0,0,0-1.983-2.1711,6.80907,6.80907,0,0,0-6.07186.28948A6.64359,6.64359,0,0,1,280.6515,2.18907Z"></path><path id="path10989" class="cls-17" d="M266.79266,85.69651c-1.28091,1.0428-3.26388.32632-3.36524.42011a52.51936,52.51936,0,0,1-4.67508,3.5753c-.79607.6219-2.04084,1.44715-1.81649,2.66334.40527,2.17072,3.85006,1.4905,5.15272.83156,1.30267-.65815,2.35934-1.74351,3.61857-2.51122.87562-.54228,1.73681-.82446,1.87435-1.93188A8.82457,8.82457,0,0,0,266.79266,85.69651Z"></path><path id="path10993" class="cls-17" d="M260.53266,82.20871c-1.17238.9553-2.93824.41932-3.02508.50681a47.17716,47.17716,0,0,1-4.27708,3.25607c-.7237.57933-1.86714,1.34625-1.65727,2.44659.36909,1.96815,3.52443,1.36044,4.71129.75983s2.17111-1.59927,3.29283-2.30156c.80334-.49893,1.59218-.75983,1.71521-1.77267A6.79267,6.79267,0,0,0,260.53266,82.20871Z"></path><path id="path10991" class="cls-9" d="M267.51639,88.29522c-.16647,1.05619-1.02041,1.35335-1.88886,1.89563-1.25206.77481-2.35208,1.89642-3.61857,2.55457-1.2664.65894-4.19743,1.20911-5.06587-.32553.45593,2.06983,3.84282,1.44793,5.13106.76692,1.28816-.68022,2.35925-1.7435,3.61849-2.51121.87569-.54229,1.73688-.82446,1.87435-1.93189A1.95588,1.95588,0,0,0,267.51639,88.29522Z"></path><path id="path10995" class="cls-9" d="M261.27806,84.69785c-.152.97029-.93355,1.23748-1.72963,1.73011-1.14347.72357-2.17112,1.73642-3.34351,2.34491-1.1724.60771-3.84285,1.10664-4.61722-.30425.41975,1.90352,3.51719,1.31,4.69682.72357,1.17963-.58563,2.17111-1.59926,3.29283-2.30155.80334-.49894,1.59218-.75983,1.71521-1.77268A1.60909,1.60909,0,0,0,261.27806,84.69785Z"></path><path class="cls-16" d="M282.76475,55.6922c1.68616-1.73685,1.88162-4.02376,1.83824-6.31066a15.40874,15.40874,0,0,0-1.57771-6.05,15.56985,15.56985,0,0,1-8.74956,1.17233c.00315.10573.00723.2197.01157.33708a10.59726,10.59726,0,0,1-4.69669-.9582c.0507,1.07834-1.4374,1.43894-1.4374,1.43894-4.13951,2.8948-12.45486,7.85936-13.02661,11.25361.54283,10.74685,2.17115,26.089,2.64151,26.31366,1.30272.61479,2.17114.51391,2.82242-.10172a59.22652,59.22652,0,0,0,1.62568-9.7517c.46542,7.15952.96453,13.23458,1.26189,13.35621a3.48114,3.48114,0,0,0,3.43763-.40512s2.61259-8.98134,1.8527-22.33363C268.76842,63.39965,281.18713,57.28445,282.76475,55.6922Z"></path><path id="path11001" class="cls-18" d="M286.07206,45.60386s4.58822,8.13443-3.06123,12.30292c-8.07657,4.41458-13.02666,5.44949-13.02666,5.44949l-1.2158.28226a31.49129,31.49129,0,0,1,0,8.45278s-5.7896,2.00464-13.10623-4.458l-2.43164-7.83042-.28224-2.09876a4.34206,4.34206,0,0,1,1.22306-3.95135c1.76583-1.59217,7.35282-5.68831,10.85552-8.02589s6.25275-4.58822,6.25275-4.58822l.60794-.56451s4.11782,3.27838,11.65156,2.17111A11.90438,11.90438,0,0,1,286.07206,45.60386Z"></path><path id="path11006" class="cls-4" d="M274.99219,19.40591s-3.01063-.91913-6.21657,5.78959l1.2013.72374A49.4116,49.4116,0,0,1,274.99219,19.40591Z"></path><path id="_Контур_8-4" data-name=" Контур 8-4" class="cls-6" d="M252.87266,49.30039l10.73968-6.19486a.58629.58629,0,0,1,.6152,0L283.04371,53.961l-11.05086,6.39754Z"></path><path id="path11009" class="cls-8" d="M272.29678,57.90522l.81776.4704a.08556.08556,0,0,1,0,.152l-.78883.456a.297.297,0,0,1-.2605,0l-.79609-.46323c-.07236-.04343-.05785-.10853,0-.152l.78884-.4559A.27482.27482,0,0,1,272.29678,57.90522Z"></path><path id="path11011" class="cls-8" d="M271.13166,57.23217l.825.4704a.08566.08566,0,0,1,0,.152l-.78166.456a.27492.27492,0,0,1-.2605,0l-.825-.4704a.08569.08569,0,0,1,0-.152l.78158-.4559A.29659.29659,0,0,1,271.13166,57.23217Z"></path><path id="path11037" class="cls-8" d="M271.69609,56.25519l.825.47765c.06519.03618.05794.10129,0,.152l-.78158.44865a.30343.30343,0,0,1-.2605,0l-.825-.47758c-.06519,0-.05794-.10861,0-.152l.78158-.44865A.28217.28217,0,0,1,271.69609,56.25519Z"></path><path id="path11039" class="cls-8" d="M270.54539,55.58214l.82509.47765c.06511,0,.05786.10129,0,.152l-.78166.44872a.30392.30392,0,0,1-.2605,0l-.825-.47765a.08559.08559,0,0,1,0-.152l.78158-.44873A.304.304,0,0,1,270.54539,55.58214Z"></path><path id="path11061" class="cls-8" d="M272.86129,56.92824l1.38228.79608a.08567.08567,0,0,1,0,.152l-.78166.4559a.29642.29642,0,0,1-.2605,0l-1.38228-.79609c-.0651,0-.05785-.10853,0-.152l.78158-.44864A.28218.28218,0,0,1,272.86129,56.92824Z"></path><path id="path11065" class="cls-8" d="M276.79822,55.29989l.81776.4704c.07236.04343.05793.10853,0,.152l-.78884.456a.297.297,0,0,1-.2605,0l-.83226-.47765a.08561.08561,0,0,1,0-.152l.78883-.456A.275.275,0,0,1,276.79822,55.29989Z"></path><path id="path11067" class="cls-8" d="M275.61134,54.62684l.81776.47765c.06519.03618.05794.10128,0,.152l-.78883.44872a.30394.30394,0,0,1-.26051,0l-.81776-.47765c-.07244,0-.05793-.10854,0-.152l.78884-.44872A.30392.30392,0,0,1,275.61134,54.62684Z"></path><path id="path11069" class="cls-8" d="M274.47514,53.961l.825.4704a.08567.08567,0,0,1,0,.152l-.78159.456a.29712.29712,0,0,1-.26058,0l-.81776-.46322a.08564.08564,0,0,1,0-.152l.78158-.4559A.275.275,0,0,1,274.47514,53.961Z"></path><path id="path11079" class="cls-8" d="M273.02051,53.11435l1.1217.65129c.06518.03618.05793.10129,0,.152l-.78159.44873a.304.304,0,0,1-.2605,0l-1.10727-.63687c-.06518-.03618-.05793-.10137,0-.152l.78158-.44872A.30386.30386,0,0,1,273.02051,53.11435Z"></path><path id="path11083" class="cls-8" d="M267.22366,49.77079l5.49284,3.14809c.07244.04343.05793.10861,0,.152l-.78883.4559a.275.275,0,0,1-.26051,0l-5.45674-3.14809a.08567.08567,0,0,1,0-.152l.78167-.456A.29658.29658,0,0,1,267.22366,49.77079Z"></path><path id="path11085" class="cls-8" d="M272.50668,55.42292l.825.47766c.06511.03618.05786.10128,0,.14471l-.78158.456a.27514.27514,0,0,1-.26058,0l-.825-.4704a.08569.08569,0,0,1,0-.15205l.78158-.44864A.28245.28245,0,0,1,272.50668,55.42292Z"></path><path id="path11087" class="cls-8" d="M271.34873,54.74988l.81776.47765a.08556.08556,0,0,1,0,.152l-.78883.44873a.304.304,0,0,1-.2605,0l-.81777-.47765c-.07235-.03618-.05793-.10137,0-.152l.78884-.44872A.30392.30392,0,0,1,271.34873,54.74988Z"></path><path id="path11109" class="cls-8" d="M273.67181,56.096l1.69345.977c.07236.04343.05794.10854,0,.152l-.78883.456a.297.297,0,0,1-.2605,0l-1.69346-.977c-.07236-.04336-.06519-.10854,0-.152l.78158-.4559A.28959.28959,0,0,1,273.67181,56.096Z"></path><path id="path11111" class="cls-8" d="M274.20739,55.10449l.825.47765c.06511.03618.05786.10129,0,.14472l-.78166.456a.30392.30392,0,0,1-.2605,0l-.825-.47765a.0856.0856,0,0,1,0-.152l.78158-.44872A.28234.28234,0,0,1,274.20739,55.10449Z"></path><path id="path11113" class="cls-8" d="M273.04944,54.4532l.81776.47757c.07236.03626.06519.10861,0,.152l-.78158.44865a.29672.29672,0,0,1-.26776,0l-.825-.4849c-.06518-.03618-.05793-.10129,0-.14472l.79609-.44864A.30336.30336,0,0,1,273.04944,54.4532Z"></path><path id="path11115" class="cls-8" d="M271.89149,53.76564l.81784.47041a.08566.08566,0,0,1,0,.152l-.78166.456a.275.275,0,0,1-.26051,0l-.81776-.4704c-.07236-.04343-.06518-.10862,0-.15205l.78159-.4559A.31861.31861,0,0,1,271.89149,53.76564Z"></path><path id="path11117" class="cls-8" d="M270.72636,53.0926l.825.47765c.0651.03618.05785.10128,0,.152l-.78159.44872a.3041.3041,0,0,1-.26058,0l-.84669-.44147a.0856.0856,0,0,1,0-.152l.78159-.44872A.30381.30381,0,0,1,270.72636,53.0926Z"></path><path id="path11135" class="cls-8" d="M275.37251,55.77754l1.12178.64412c.0651,0,.05785.10853,0,.152l-.78167.44865a.28217.28217,0,0,1-.2605,0l-1.12177-.644a.08566.08566,0,0,1,0-.152l.78883-.456A.275.275,0,0,1,275.37251,55.77754Z"></path><path id="path11137" class="cls-8" d="M255.45626,49.52479l16.48591,9.52388c.07236,0,.05793.10853,0,.152l-.39079.22432a.28906.28906,0,0,1-.26776,0l-16.5004-9.50937a.08561.08561,0,0,1,0-.152l.3908-.2244A.30378.30378,0,0,1,255.45626,49.52479Z"></path><polygon id="_Контур_9-9" data-name=" Контур 9-9" class="cls-1" points="272.015 51.848 266.97 48.939 266.862 48.881 269.807 47.18 274.96 50.154 274.851 50.212 272.015 51.848"></polygon><polygon id="_Контур_10-5" data-name=" Контур 10-5" class="cls-4" points="266.97 48.939 269.807 47.303 274.851 50.212 272.015 51.848 266.97 48.939"></polygon><path id="_Контур_11-6" data-name=" Контур 11-6" class="cls-4" d="M283.05822,53.97554v.25325a1.03476,1.03476,0,0,1-.51383.89738l-10.00878,5.78967a1.04239,1.04239,0,0,1-1.03491,0l-18.09251-10.4575a1.04215,1.04215,0,0,1-.51383-.89737v-.25333l19.09849,11.04369Z"></path><path id="_Контур_13-8" data-name=" Контур 13-8" class="cls-6" d="M271.7251,60.51055a1.23764,1.23764,0,0,1-1.05667-.08686L252.63384,50.01687a1.25194,1.25194,0,0,1-.59344-.8612L250.0647,37.3883a1.90771,1.90771,0,0,1,0-.20264,1.2158,1.2158,0,0,1,.36185-.86844L269.1632,47.13653a.89748.89748,0,0,1,.44139.62962Z"></path><path id="_Контур_14-8" data-name=" Контур 14-8" class="cls-4" d="M271.99285,60.35858l-.123.06511a1.20041,1.20041,0,0,1-.16647.08686l-2.13493-12.7444a.89758.89758,0,0,0-.44147-.62962L250.41207,36.31722a1.38231,1.38231,0,0,1,.2533-.1954L269.4382,46.97731a.919.919,0,0,1,.44139.63687Z"></path><path id="_Контур_7-1" data-name=" Контур 7-1" class="cls-16" d="M281.51994,57.70413a21.96729,21.96729,0,0,1,2.21454-1.75131,8.68292,8.68292,0,0,0,2.23622-1.59942c.72373-.72365,1.75139-3.65467,2.29415-6.51325a28.46118,28.46118,0,0,0-.16647-9.70485,67.53341,67.53341,0,0,0-3.84282-11.174c-1.02041-2.17111-.44872-3.4737.48491-4.429,1.09276-1.12177,2.23621-1.09284,3.53888,1.91779a60.8258,60.8258,0,0,1,4.0382,13.14961,29.07791,29.07791,0,0,1-.13746,9.893,36.188,36.188,0,0,1-2.63426,8.30814c-.33293.77433-.39079,1.44739-.854,2.98887a10.08774,10.08774,0,0,1-2.35926,4.11782c-.99148.92638-1.49806,1.10727-1.77306.98423s-.32569-.50658.07961-.977a8.509,8.509,0,0,0,1.69345-2.43886s-.83952,1.08551-1.3967,1.6862a8.21415,8.21415,0,0,1-1.679,1.39678c-.60786.36186-1.56317-.06519-1.16512-.55s.83952-.75991,1.65-1.67178a8.14486,8.14486,0,0,0,1.11452-1.57042,15.70046,15.70046,0,0,1-1.89611,1.55591,3.45219,3.45219,0,0,1-1.78757.72373c-.34011,0-.81051-.39079-.23882-.93355a11.9568,11.9568,0,0,0,2.21454-1.96121c.60794-.78166.93355-1.44746.72373-1.44746s-.52108.49941-1.30992.86119-1.69346.24608-1.85268-.1954.09412-.21707.81052-.6658Z"></path><path id="path11004" class="cls-4" d="M290.284,28.46663s-2.77905,2.46787-5.88371,1.96121l-1.2013-5.1744s-.825-2.72837,1.51973-3.76328S289.278,23.16919,290.284,28.46663Z"></path><path class="cls-8" d="M274.85143,4.80334s-.09472,4.427,7.18234,5.29576S284.941,6.75415,284.941,6.75415l-5.93047-2.96524Z"></path></g></g></g></g></svg> 